<svg xmlns="http://www.w3.org/2000/svg" xmlns:xlink="http://www.w3.org/1999/xlink" style="isolation:isolate" shape-rendering="crispEdges" version="1.1" viewBox="0 0 20 20"><path fill="#FFDBAC" d="M8 15v1H4v1H3v3h14v-3h-1v-1h-4v-1h3v-1h1v-1h1v-3h1V7h-1V4h-1V3h-1V2H5v1H4v1H3v3H2v3h1v3h1v1h1v1h3z"/><path fill="#FFF" fill-opacity=".1" d="M5 15v-1H4v-1H3v-3H2V7h1V4h1V3h1V2h10v1h1v1h1v3h1v3h-1v3h-1v1h-1v1H5z"/><path fill="#FFF" d="M5 8h3v1H5V8zm7 0h3v1h-3V8z"/><path fill="#697b94" d="M6 8h1v1H6V8zm7 0h1v1h-1V8z"/><path fill="#362e2e" fill-rule="evenodd" d="M7 5v1H5v1H4V6h1V5h2zm7 0v1h-2v1h-1V6h1V5h2z"/><path fill="#d29985" d="M8 13v1h4v-1h1v-1h-1v1H8z"/><path fill="#a04b5d" fill-rule="evenodd" d="M4 8H3V7h1V6h5v1h2V6h5v1h1v1h-1v2h-5V8H9v2H4V8zm1 0V7h3v2H5V8zm7-1v2h3V7h-3z"/><path fill="#FFF" fill-opacity=".2" fill-rule="evenodd" d="M5 7h3v2H5V7zm7 0h3v2h-3V7z"/><path fill="#FFF" fill-opacity=".2" fill-rule="evenodd" d="M14 7h1v1h-1V7zM7 7h1v1H7V7z"/><path fill="#FFF" fill-opacity=".2" fill-rule="evenodd" d="M3 8V7h1v1H3zm6-1v1h2V7H9zm7 0v1h1V7h-1z"/><path fill="#5bc0de" d="M3 20v-3h1v-1h3v2h6v-2h3v1h1v3H3z"/><path fill="#FFF" fill-opacity=".2" fill-rule="evenodd" d="M5 16H4v1H3v3h2v-4zm1 0h1v2h6v-2h1v4H6v-4zm9 0h1v1h1v3h-2v-4z"/><path fill="#504444" fill-rule="evenodd" d="M2 4v1h1v1h2V4h1V2H4v1H3v1H2zm6-1h2v1h2V3h1V2H8v1zm6 1h1v2h2V5h1V4h-1V3h-1V2h-2v2z"/></svg>